Patient4_TMGait_0pt6_02_right_12_GRF.mot
version=1
nRows=32
nColumns=19
inDegrees=no
endheader
time	F1x	F1y	F1z	M1x	M1y	M1z	F2x	F2y	F2z	M2x	M2y	M2z	EC1x	EC1y	EC1z	EC2x	EC2y	EC2z
14.13	-10.5089	803.4473	67.7334	-277.0568	-62.9643	742.2191	12.3919	7.6857	-5.5236	6.2558	2.6452	12.2569	-0.0592	0.0182	-0.0073	-0.0462	0.0165	0.9585
14.1425	-4.3246	788.8041	67.8834	-271.9629	-60.9871	726.024	8.1157	6.6605	-3.9702	4.8509	2.0842	9.9053	-0.0592	0.0182	-0.0073	-0.0462	0.0165	0.9585
14.155	1.654	772.0296	67.8289	-266.106	-58.8105	707.356	4.5169	5.8251	-2.5318	3.6485	1.4992	7.9407	-0.0592	0.0182	-0.0073	-0.0462	0.0165	0.9585
14.1675	7.126	754.1042	67.5597	-259.8134	-56.5303	687.2771	1.7942	5.2259	-1.3802	2.7357	1.0068	6.4796	-0.0592	0.0182	-0.0073	-0.0462	0.0165	0.9585
14.18	11.9281	736.0787	67.1216	-253.4439	-54.2589	666.9305	-0.083466	4.8543	-0.54307	2.1196	0.6364	5.5073	-0.0592	0.0182	-0.0073	-0.0462	0.0165	0.9585
14.1925	16.0071	718.9868	66.5964	-247.359	-52.1056	647.4	-1.2434	4.6535	-0.010896	1.7511	0.402	4.9205	-0.0592	0.0182	-0.0073	-0.0462	0.0165	0.9585
14.205	19.3818	703.8122	66.0261	-241.9064	-50.1159	629.6683	-1.8725	4.5353	0.29015	1.5538	0.26924	4.5778	-0.0592	0.0182	-0.0073	-0.0462	0.0165	0.9585
14.2175	22.135	691.3783	65.4522	-237.3769	-48.3106	614.5237	-2.1364	4.3706	0.40873	1.4329	0.22518	4.2877	-0.0592	0.0182	-0.0073	-0.0462	0.0165	0.9585
14.23	24.3855	682.2302	64.9066	-233.9626	-46.6894	602.4693	-2.1778	4.0261	0.41422	1.295	0.2372	3.869	-0.0592	0.0182	-0.0073	-0.0462	0.0165	0.9585
14.2425	26.2368	676.6045	64.4187	-231.7445	-45.2535	593.7171	-2.0929	3.3288	0.34262	1.0418	0.29063	3.1048	-0.0592	0.0182	-0.0073	-0.0462	0.0165	0.9585
14.255	27.8286	674.5142	64.0008	-230.7224	-43.9776	588.2459	-1.9395	2.101	0.24355	0.58097	0.34962	1.7841	-0.0592	0.0182	-0.0073	-0.0462	0.0165	0.9585
14.2675	29.2993	675.7907	63.6559	-230.831	-42.8251	585.8775	-1.7328	0.17608	0.13808	-0.16903	0.39496	-0.2898	-0.0592	0.0182	-0.0073	-0.0462	0.0165	0.9585
14.28	30.8097	680.0875	63.3875	-231.9435	-41.7513	586.2536	-1.4572	-2.555	0.05735	-1.2583	0.38553	-3.2438	-0.0592	0.0182	-0.0073	-0.0462	0.0165	0.9585
14.2925	32.4868	686.8491	63.2122	-233.8582	-40.7283	588.858	-1.0725	-6.0631	0.016794	-2.6768	0.28642	-7.0442	-0.0592	0.0182	-0.0073	-0.0462	0.0165	0.9585
14.305	34.4387	695.2241	63.1572	-236.2735	-39.7431	592.9348	-0.51919	-10.0948	0.051256	-4.3172	0.037759	-11.421	-0.0592	0.0182	-0.0073	-0.0462	0.0165	0.9585
14.3175	36.6856	704.0884	63.261	-238.7888	-38.8176	597.5351	0.25374	-14.0289	0.18902	-5.92	-0.41392	-15.6976	-0.0592	0.0182	-0.0073	-0.0462	0.0165	0.9585
14.33	39.1941	712.0993	63.5436	-240.9243	-37.9829	601.5465	1.2928	-16.7449	0.46545	-7.0165	-1.1258	-18.6543	-0.0592	0.0182	-0.0073	-0.0462	0.0165	0.9585
14.3425	41.8663	717.7992	63.9949	-242.1697	-37.2716	603.8186	2.581	-16.4694	0.8983	-6.8696	-2.1118	-18.3491	-0.0592	0.0182	-0.0073	-0.0462	0.0165	0.9585
14.355	44.5545	719.7497	64.5421	-242.0353	-36.6832	603.2381	4.0294	-10.7081	1.4915	-4.4406	-3.3352	-12.0576	-0.0592	0.0182	-0.0073	-0.0462	0.0165	0.9585
14.3675	47.0642	716.6991	65.0408	-240.1133	-36.1762	598.8566	5.4027	3.7546	2.2008	1.6044	-4.6454	3.75	-0.0592	0.0182	-0.0073	-0.0462	0.0165	0.9585
14.38	49.2385	707.7827	65.2778	-236.1475	-35.6413	590.0225	6.303	30.611	2.9378	12.7928	-5.759	33.1106	-0.0592	0.0182	-0.0073	-0.0462	0.0165	0.9585
14.3925	50.9775	692.5427	65.0095	-230.0405	-34.9206	576.374	6.0764	73.4799	3.5306	30.6124	-6.1976	79.9902	-0.0592	0.0182	-0.0073	-0.0462	0.0165	0.9585
14.405	52.2355	670.7408	63.9883	-221.7888	-33.8273	557.67	3.8099	134.8845	3.7077	56.0876	-5.2711	147.1651	-0.0592	0.0182	-0.0073	-0.0462	0.0165	0.9585
14.4175	52.9578	642.0553	61.989	-211.3723	-32.1825	533.5589	-1.7359	214.7422	3.0801	89.1501	-2.0462	234.5606	-0.0592	0.0182	-0.0073	-0.0462	0.0165	0.9585
14.43	53.0206	605.8541	58.8228	-198.6668	-29.8458	503.4268	-11.9939	308.515	1.2453	127.8715	4.4758	337.2307	-0.0592	0.0182	-0.0073	-0.0462	0.0165	0.9585
14.4425	52.1735	561.2965	54.3902	-183.4607	-26.7821	466.4999	-26.8872	406.2431	-2.5149	168.0633	14.972	444.2318	-0.0592	0.0182	-0.0073	-0.0462	0.0165	0.9585
14.455	50.0986	507.9507	48.8127	-165.6355	-23.1627	422.3457	-43.7929	495.8548	-9.3019	204.6884	29.4201	542.1052	-0.0592	0.0182	-0.0073	-0.0462	0.0165	0.9585
14.4675	46.4393	446.5073	42.4367	-145.3846	-19.3608	371.4999	-59.8817	570.4956	-18.5999	234.9038	46.0411	622.9664	-0.0592	0.0182	-0.0073	-0.0462	0.0165	0.9585
14.48	40.9933	379.0692	35.763	-123.3247	-15.8378	315.697	-73.0982	629.6646	-29.1751	258.5493	62.6637	685.9506	-0.0592	0.0182	-0.0073	-0.0462	0.0165	0.9585
14.4925	33.898	308.983	29.2944	-100.4722	-12.9588	257.6975	-82.3674	676.0525	-39.5572	276.8278	77.2883	733.9187	-0.0592	0.0182	-0.0073	-0.0462	0.0165	0.9585
14.505	25.6331	240.3645	23.3479	-78.1144	-10.8345	200.9019	-87.417	712.4777	-48.5797	290.9959	88.6032	769.9997	-0.0592	0.0182	-0.0073	-0.0462	0.0165	0.9585
14.5175	17.0347	177.2897	18.0828	-57.5567	-9.3427	148.6627	-88.6472	740.6465	-55.6486	301.8191	96.1745	796.2111	-0.0592	0.0182	-0.0073	-0.0462	0.0165	0.9585
